<svg xmlns="http://www.w3.org/2000/svg" viewBox="0 0 512 512">
  <defs>
    <linearGradient id="sea" x1="0" y1="0" x2="1" y2="1"><stop stop-color="#1b6957"/><stop offset="1" stop-color="#0d3340"/></linearGradient>
    <linearGradient id="land" x1="0" y1="0" x2="0" y2="1"><stop stop-color="#c5dc79"/><stop offset="1" stop-color="#5b8f45"/></linearGradient>
  </defs>
  <rect width="512" height="512" rx="104" fill="url(#sea)"/>
  <path d="M72 338c72-26 105-76 174-77 72-1 116 52 194 71-31 63-95 108-184 108S103 399 72 338Z" fill="#0a2930" opacity=".45"/>
  <ellipse cx="256" cy="304" rx="172" ry="105" fill="url(#land)"/>
  <path d="M256 103c-56 0-101 46-101 102 0 62 101 139 101 139s101-77 101-139c0-56-45-102-101-102Z" fill="#f3ba58"/>
  <circle cx="256" cy="203" r="43" fill="#fff1bf"/>
  <path d="M230 209l20 18 37-48" fill="none" stroke="#174b3b" stroke-width="20" stroke-linecap="round" stroke-linejoin="round"/>
</svg>
